<?xml version='1.0' encoding='iso-8859-1'?>
<svg version="1.1" xmlns="http://www.w3.org/2000/svg" viewBox="0 0 441.595 441.595" xmlns:xlink="http://www.w3.org/1999/xlink" enable-background="new 0 0 441.595 441.595">
  <path d="m302.708,95.126v-32.051c0-5.799 4.701-10.5 10.5-10.5h64.133c5.799,0 10.5,4.701 10.5,10.5v32.051c0,4.102-2.352,7.654-5.78,9.382v69.607c0,5.799-4.701,10.5-10.5,10.5s-10.5-4.701-10.5-10.5v-78.989c0-4.102 2.352-7.654 5.78-9.382v-12.169h-43.133v12.169c3.428,1.728 5.779,5.28 5.779,9.381v63.969c0,5.799-4.701,10.5-10.5,10.5s-10.5-4.701-10.5-10.5v-54.587c-3.428-1.728-5.779-5.28-5.779-9.381zm26.584-62.202c4.691,3.411 11.257,2.375 14.668-2.315 6.607-9.084 11.358-8.134 27.245-0.49 11.463,5.516 24.7,11.888 39.185,11.887 8.365,0 17.148-2.126 26.24-7.77 4.927-3.058 6.443-9.531 3.385-14.458-3.058-4.928-9.532-6.443-14.458-3.385-14.318,8.885-26.521,3.813-45.246-5.198-7.766-3.736-15.796-7.6-24.669-8.077-11.274-0.607-20.918,4.487-28.666,15.138-3.41,4.69-2.373,11.257 2.316,14.668zm112.3,398.17c0,5.799-4.701,10.5-10.5,10.5h-420.592c-5.799,0-10.5-4.701-10.5-10.5s4.701-10.5 10.5-10.5h15.787v-173.714c0-5.799 4.701-10.5 10.5-10.5h24.427l6.515-57.258h-7.592c-5.799,0-10.5-4.701-10.5-10.5s4.701-10.5 10.5-10.5h9.981l3.908-34.343h-36.996c-0.684,0.017-1.384-0.036-2.079-0.16-1.221-0.215-2.37-0.642-3.407-1.24-1.366-0.785-4.456-3.624-5.097-7.258-0.21-1.194-0.223-2.435-0.002-3.671 0.121-0.688 0.309-1.353 0.557-1.987l19.964-54.886c0.222-0.659 0.587-1.249 0.85-1.881 1.856-4.461 4.7-4.836 7.259-5.098 0.69-0.071 1.382-0.177 2.087-0.161h25.549l4.337-38.123c0.604-5.305 5.093-9.313 10.433-9.313h27.345c5.34,0 9.829,4.008 10.433,9.313l4.337,38.123h25.546c0.71-0.018 1.413,0.043 2.103,0.164 3.989,0.697 6.083,2.635 7.235,5.08 0.295,0.626 0.636,1.234 0.86,1.899l19.962,54.885c0.245,0.628 0.432,1.285 0.552,1.966 0.225,1.245 0.176,2.488 0.001,3.696-0.351,2.422-1.976,5.464-5.065,7.236-1.062,0.609-2.234,1.052-3.484,1.266-0.679,0.118-1.359,0.17-2.029,0.152h-36.996l3.907,34.343h9.98c5.799,0 10.5,4.701 10.5,10.5s-4.701,10.5-10.5,10.5h-7.591l6.514,57.258h42.247v-69.386c0-3.295 1.546-6.398 4.177-8.383 2.63-1.984 6.038-2.619 9.208-1.713l184.009,52.574c4.508,1.288 7.616,5.408 7.616,10.096v201.026h22.744c5.799-0.002 10.5,4.699 10.5,10.498zm-337.746-383.657h14.614l-3.007-26.436h-8.599l-3.008,26.436zm-6.297,55.342h27.207l-3.907-34.343h-19.392l-3.908,34.343zm-6.296,55.343h39.8l-3.907-34.343h-31.986l-3.907,34.343zm-14.839-55.343l3.907-34.343h-16.05l-12.492,34.343h24.635zm8.769,154.601h-14.444c-0.093,0.001-0.186,0.001-0.279,0h-23.173v163.214h37.896v-163.214zm10.5-21h44.274l-6.514-57.258h-44.58l-6.515,57.258h13.335zm48.762,21h-38.262v163.214h38.262v-163.214zm1.447-154.601h24.634l-12.491-34.343h-16.05l3.907,34.343zm57.447,154.601h-37.894v163.214h37.894v-163.214zm184.009-29.892l-163.009-46.574v239.68h163.009v-193.106zm-129.077,135.244h95.143c5.799,0 10.5-4.701 10.5-10.5s-4.701-10.5-10.5-10.5h-95.143c-5.799,0-10.5,4.701-10.5,10.5s4.702,10.5 10.5,10.5zm0-52.573h95.143c5.799,0 10.5-4.701 10.5-10.5s-4.701-10.5-10.5-10.5h-95.143c-5.799,0-10.5,4.701-10.5,10.5s4.702,10.5 10.5,10.5z"/>
</svg>
